<svg enable-background="new 0 0 140 140" height="512" viewBox="0 0 140 140" width="512" xmlns="http://www.w3.org/2000/svg"><circle cx="70" cy="70" fill="#efc84a" r="64"/><path d="m102.5476227 40.5816536h-65.0899658c-1.4199829 0-2.5800171 1.1500244-2.5800171 2.5699463v45.6000938c0 .6499023.25 1.2399902.6600342 1.6899414l-.0100098.0100098.0700073.0800781c.0299683.0198975.0499878.0499268.0799561.0699463l13.2700195 13.2698975v.6000977h.6099854l28.9603882 28.9470215c31.0043335-4.1262207 54.9822388-30.4343262 55.4575806-62.4538574l-29.5079346-29.5131798c-.4700318-.5300294-1.1500245-.8699952-1.920044-.8699952z" opacity=".1"/><path d="m85.9479828 101.8310852h-31.8959656l3.5011482-11.3687668h24.893673z" fill="#2f4859"/><path d="m102.5468521 91.3251343h-65.0937004c-1.4196892 0-2.5705757-1.1508865-2.5705757-2.5705719v-45.6032067c0-1.4196892 1.1508865-2.5705757 2.5705757-2.5705757h65.0937042c1.4196854 0 2.5705719 1.1508865 2.5705719 2.5705757v45.6032066c-.0000038 1.4196854-1.1508903 2.570572-2.5705757 2.570572z" fill="#3a556a"/><path d="m40.579189 45.830414h58.841621v37.260391h-58.841621z" fill="#27a2db"/><path d="m87.2418671 99.1951599h-34.4837342c-2.1070709 0-3.8151894 1.7081146-3.8151894 3.8151855v1.4566727h42.114109v-1.4566727c.0000001-2.1070709-1.7081145-3.8151855-3.8151854-3.8151855z" fill="#4d5c7d"/><path d="m70 49.7475319c-4.0047684 0-7.251255 3.246521-7.251255 7.2511749 0 4.0048103 3.2464867 7.2513313 7.251255 7.2513313s7.2512512-3.246521 7.2512512-7.2513313c0-4.0046539-3.2464828-7.2511749-7.2512512-7.2511749z" fill="#fcd462"/><path d="m70 51.2867203c-3.1546936 0-5.712059 2.5573997-5.712059 5.7120018 0 3.1547279 2.5573654 5.7121239 5.712059 5.7121239s5.712059-2.5573959 5.712059-5.7121239c0-3.1546021-2.5573654-5.7120018-5.712059-5.7120018z" fill="#dc8744"/><path d="m70 51.6678505c-2.9442062 0-5.3309326 2.3867569-5.3309326 5.3308754 0 2.9442329 2.3867264 5.3309937 5.3309326 5.3309937s5.3309326-2.3867607 5.3309326-5.3309937c0-2.9441185-2.3867264-5.3308754-5.3309326-5.3308754z" fill="#f7be56"/><path d="m72.4060593 57.3329239c-.1051483-.1390076-.2388077-.254837-.3973999-.3475075-.1194077-.0712891-.253067-.1283035-.4009705-.1710854.2690887-.1318703.468689-.3065109.6023407-.5221481.1318741-.2156258.1978149-.4455185.1978149-.6914482 0-.2619591-.0748596-.5132408-.2245483-.7538147-.1496964-.2405777-.3564148-.4187851-.620163-.534626-.199585-.0891037-.4490814-.1425629-.7484741-.1639481v-.7128334h-.7520447v.7021408h-.3795853v-.7021408h-.7502441v.7021408h-.3190002v-.0017853h-.8393555v.6736221h.5916519v4.3732338h-.5916519v.6736221h.5916519v.0017853h.5667038v.7039223h.7502441v-.7039223h.3795853v.7039223h.7520447v-.7092628c.2494888-.0124779.468689-.0427818.6558075-.090889.2494965-.0623779.4597778-.1568222.6255112-.2815704s.3065109-.3029556.4187851-.5328407c.1140518-.2298851.1710815-.4793816.1710815-.7466927 0-.3332481-.0944519-.6219444-.2797851-.8678741zm-3.2825928-2.519867h1.1423111c.4116592 0 .7021408.0267372.8696518.0801964.1693039.053463.2993927.151474.3902817.2958221s.1372223.3118629.1372223.5025482c0 .1995926-.0481186.3653259-.1461334.4989815-.0980148.1318817-.242363.2281113-.4348297.2851372-.1461258.0445518-.3867035.065937-.7217407.065937h-1.236763v-1.7286224zm2.6641998 3.8689042c-.0748443.1389961-.1710663.2459297-.2886963.3172035-.1176071.0730743-.2619553.1247482-.4365997.156826-.0997925.0178261-.270874.0267334-.5150223.0267334h-1.4238815v-1.965641h1.3223038c.3635406 0 .6433258.0320778.8375778.0944557.1158295.0392036.2156219.0944443.3029556.1657333.0570145.0481186.1069183.103363.151474.1675148.1087036.156826.1639481.3421593.1639481.5560112 0 .1817742-.0391999.3421555-.1140595.4811631z" fill="#fcd462"/><path d="m94.654495 86.143059h2.656353v1.400622h-2.656353z" fill="#fcd462"/><path d="m89.534981 86.143059h2.656353v1.400622h-2.656353z" fill="#e56353"/><path d="m82.7288055 69.3406982h-25.457611c-1.6280289 0-2.9477196 1.3198013-2.9477196 2.9477768 0 1.6279678 1.3196907 2.9476624 2.9477196 2.9476624h25.4576111c1.6279755 0 2.9477234-1.3196945 2.9477234-2.9476624-.0000001-1.6279754-1.319748-2.9477768-2.9477235-2.9477768z" fill="#ebf0f3"/><g fill="#2f4859"><path d="m57.726265 72.1951599.2383347-.735733c.5492096.1934357.9481583.3609543 1.1968575.5025787-.0656281-.6251984-.1001701-1.0552368-.1036263-1.2901154h.7512741c-.0103607.3419571-.0500832.7702713-.1191673 1.284935.3557739-.1796188.7633629-.3454132 1.2227592-.4973984l.2383347.735733c-.4386711.1450729-.8687096.2417831-1.2901154.2901459.210701.1830673.5077553.5094833.8911667.9792404l-.6217461.4404068c-.2003365-.2728806-.4369469-.6441956-.7098198-1.1139603-.2556076.48703-.4801254.8583527-.6735573 1.1139603l-.6113777-.4404068c.4006767-.4939346.6873703-.8203506.8600769-.9792404-.4455834-.086357-.8687134-.1830672-1.2693939-.2901458z"/><path d="m63.0069427 72.1951599.2383347-.735733c.5492058.1934357.9481583.3609543 1.1968536.5025787-.0656281-.6251984-.1001663-1.0552368-.1036224-1.2901154h.7512741c-.0103683.3419571-.050087.7702713-.1191711 1.284935.3557739-.1796188.7633667-.3454132 1.2227631-.4973984l.2383347.735733c-.4386749.1450729-.8687134.2417831-1.2901154.2901459.210701.1830673.5077515.5094833.8911591.9792404l-.6217422.4404068c-.2003326-.2728806-.4369431-.6441956-.7098236-1.1139603-.2556.48703-.4801178.8583527-.6735535 1.1139603l-.6113777-.4404068c.4006767-.4939346.6873741-.8203506.8600807-.9792404-.4455873-.086357-.8687173-.1830672-1.2693941-.2901458z"/><path d="m68.2876205 72.1951599.2383347-.735733c.549202.1934357.9481506.3609543 1.1968536.5025787-.0656281-.6251984-.100174-1.0552368-.1036301-1.2901154h.7512741c-.0103607.3419571-.0500793.7702713-.1191635 1.284935.3557739-.1796188.7633591-.3454132 1.2227554-.4973984l.2383347.735733c-.4386673.1450729-.8687057.2417831-1.2901154.2901459.210701.1830673.5077591.5094833.8911667.9792404l-.6217422.4404068c-.2003403-.2728806-.4369431-.6441956-.7098236-1.1139603-.2556076.48703-.4801254.8583527-.6735535 1.1139603l-.6113815-.4404068c.4006805-.4939346.6873703-.8203506.8600769-.9792404-.4455795-.086357-.8687133-.1830672-1.2693863-.2901458z"/><path d="m73.5682907 72.1951599.2383347-.735733c.5492096.1934357.9481583.3609543 1.1968536.5025787-.0656281-.6251984-.1001663-1.0552368-.1036224-1.2901154h.7512741c-.0103607.3419571-.050087.7702713-.1191711 1.284935.3557816-.1796188.7633667-.3454132 1.2227631-.4973984l.2383347.735733c-.4386749.1450729-.8687134.2417831-1.2901154.2901459.210701.1830673.5077591.5094833.8911667.9792404l-.6217422.4404068c-.2003403-.2728806-.4369507-.6441956-.7098236-1.1139603-.2556076.48703-.4801254.8583527-.6735535 1.1139603l-.6113815-.4404068c.4006805-.4939346.6873703-.8203506.8600769-.9792404-.4455873-.086357-.8687135-.1830672-1.2693941-.2901458z"/><path d="m78.8489685 72.1951599.2383347-.735733c.549202.1934357.9481583.3609543 1.1968536.5025787-.0656281-.6251984-.1001663-1.0552368-.1036224-1.2901154h.7512741c-.0103683.3419571-.050087.7702713-.1191711 1.284935.3557739-.1796188.7633591-.3454132 1.2227631-.4973984l.2383347.735733c-.4386749.1450729-.8687134.2417831-1.2901154.2901459.210701.1830673.5077515.5094833.8911591.9792404l-.6217422.4404068c-.2003403-.2728806-.4369431-.6441956-.7098236-1.1139603-.2556.48703-.4801178.8583527-.6735535 1.1139603l-.6113815-.4404068c.4006805-.4939346.6873779-.8203506.8600769-.9792404-.4455797-.086357-.868706-.1830672-1.2693865-.2901458z"/></g></svg>